<?xml version="1.0" encoding="UTF-8" standalone="no"?>
<!-- Generator: Adobe Illustrator 16.0.3, SVG Export Plug-In . SVG Version: 6.00 Build 0)  -->

<svg
   version="1.1"
   id="Capa_1"
   x="0px"
   y="0px"
   width="471.60593"
   height="719.99963"
   viewBox="0 0 471.6059 719.99962"
   enable-background="new 0 0 595.28 841.89"
   xml:space="preserve"
   sodipodi:docname="Coat of arms of the Tabasco Congress.svg"
   inkscape:version="1.1 (c68e22c387, 2021-05-23)"
   xmlns:inkscape="http://www.inkscape.org/namespaces/inkscape"
   xmlns:sodipodi="http://sodipodi.sourceforge.net/DTD/sodipodi-0.dtd"
   xmlns="http://www.w3.org/2000/svg"
   xmlns:svg="http://www.w3.org/2000/svg"><defs
   id="defs261">
	

		
		
		
		
		
		
		
		
		
		
		
		
		
		
		
		
		
		
		
		
		
		
		
		
		
		
		
		
		
		
		
		
		
		
		
		
		
		
		
		
		
		
		
		
		
		
		
		
		
		
		
		
		
		
		
		
		
		
		
		
		
		
		
		
		
		
		
		
		
		
		
		
		
		
		
		
		
		
		
		
		
		
		
		
		
		
		
		
		
		
		
		
		
		
		
		
		
		
		
		
		
		
		
		
		
		
		
		
		
		
		
		
		
		
		
		
		
		
		
		
		
		
		
		
		
		
	</defs><sodipodi:namedview
   id="namedview259"
   pagecolor="#ffffff"
   bordercolor="#666666"
   borderopacity="1.0"
   inkscape:pageshadow="2"
   inkscape:pageopacity="0.0"
   inkscape:pagecheckerboard="0"
   showgrid="false"
   fit-margin-top="0"
   fit-margin-left="0"
   fit-margin-right="0"
   fit-margin-bottom="0"
   inkscape:zoom="0.69880012"
   inkscape:cx="-106.61132"
   inkscape:cy="321.26497"
   inkscape:window-width="1920"
   inkscape:window-height="1017"
   inkscape:window-x="1912"
   inkscape:window-y="-8"
   inkscape:window-maximized="1"
   inkscape:current-layer="Capa_1" />
<path
   id="path8"
   d="m 230.77206,4e-5 c -0.0252,2.74028 -0.0524,5.48319 -0.0776,8.22345 -2.53897,0.0437 -5.07919,0.14839 -7.61815,0.10866 -1.53901,-0.0238 -2.39656,0.38351 -2.34623,2.12118 0.0781,2.64624 0.0849,5.29785 -0.005,7.94409 -0.0556,1.64099 0.76944,1.95655 2.15481,1.91682 2.01051,-0.0583 4.02578,0.0337 6.03761,-0.0259 1.3112,-0.0397 1.93518,0.3859 1.92459,1.80042 -0.009,1.25028 -0.1734,2.27084 -1.38395,2.94896 -1.0185,0.57084 -1.99308,1.30116 -2.60233,2.2945 -0.85426,1.39331 -1.94857,1.59136 -3.46373,1.35031 -5.79577,-0.92049 -11.59179,-0.92293 -17.373,0.21212 -13.72522,2.69525 -24.58971,9.99136 -33.10854,20.87036 -1.75092,2.23699 -3.3208,3.95756 -6.38424,3.14038 -0.29138,-0.0768 -0.63414,0.01 -0.94936,0.0414 -17.9065,1.81184 -24.24799,21.24943 -17.49199,35.04088 0.43044,0.87943 0.92103,1.01172 1.74351,0.55876 2.3191,-1.27677 4.66925,-2.49853 6.98438,-3.78191 2.03567,-1.12843 2.03617,-1.15415 1.30375,-3.28783 -1.53636,-4.47398 -1.26594,-8.7549 1.42533,-12.73486 1.78535,-2.63962 4.29609,-3.96514 7.52243,-3.98368 2.06481,-0.0119 3.95445,0.62777 5.8643,1.27013 3.12171,1.05293 3.17784,1.05908 4.61486,-1.7461 1.55357,-3.0343 3.41624,-5.85254 5.6082,-8.4511 9.65653,-11.45248 21.72349,-17.25268 36.9215,-15.76401 2.32572,0.22781 3.97644,0.85893 5.16844,3.28267 2.15222,4.37596 5.94216,6.78255 10.95254,6.95075 5.82358,0.19734 9.93727,-2.53083 12.47358,-7.62332 0.69401,-1.39199 1.49884,-2.10468 2.99811,-2.31261 4.22366,-0.58938 8.47326,-0.75569 12.65984,-0.0233 13.64576,2.38931 23.32054,10.41683 30.5295,21.85077 0.94433,1.49794 1.17788,3.77129 2.85065,4.3898 1.65159,0.61057 3.39903,-0.79571 5.11154,-1.28046 6.4964,-1.83568 12.01452,1.58452 13.16944,8.20277 0.50328,2.88729 0.33697,5.72764 -0.79675,8.41229 -0.6066,1.43703 -0.21876,2.07921 1.05801,2.71097 2.37075,1.17347 4.71005,2.41975 6.99472,3.75346 1.27147,0.74037 1.83913,0.37147 2.39539,-0.85364 1.9284,-4.2422 2.73808,-8.68309 2.35399,-13.29878 -0.97611,-11.73591 -9.57507,-21.89702 -23.09501,-21.24804 -1.36948,0.0649 -2.13901,-0.28495 -2.86878,-1.371 -2.4979,-3.71374 -5.56731,-6.94247 -8.91154,-9.88936 -10.53464,-9.28172 -22.77187,-14.05737 -36.89046,-13.64282 -2.32043,0.0675 -4.63568,0.42957 -6.94816,0.69843 -0.64501,0.0755 -1.29862,0.25372 -1.73834,-0.36214 -1.1271,-1.57609 -2.65178,-2.71239 -4.12854,-3.92161 -1.17743,-0.96287 -0.84657,-2.37311 -0.48632,-3.54392 0.31522,-1.02247 1.44961,-0.60085 2.235,-0.62601 1.90588,-0.0609 3.81356,-0.0564 5.71943,-0.0233 1.21187,0.0212 1.72565,-0.5204 1.71506,-1.71505 -0.0225,-2.64756 0.0361,-5.29652 -0.0129,-7.94409 -0.0397,-2.18136 -0.10908,-2.22334 -2.40832,-2.27897 -2.43433,-0.0583 -4.86822,-0.0704 -7.30255,-0.10346 -0.007,-2.75088 -0.0141,-5.5049 -0.0207,-8.2571 z m 5.8824,54.02806 c -2.56893,0.0253 -5.12947,1.30432 -7.17839,3.81812 -3.22238,3.95479 -4.28224,8.62711 -4.45707,13.20306 0.0675,5.13885 1.03278,9.62019 3.87504,13.54452 4.35213,6.00901 11.21536,6.04097 15.61914,0.10348 2.26877,-3.06079 3.43284,-6.56364 3.81295,-10.27739 0.62249,-6.0845 -0.41258,-11.83749 -4.44154,-16.68231 -2.08269,-2.50519 -4.6612,-3.73482 -7.23013,-3.70948 z m 57.86946,20.2547 c -1.97133,-0.0776 -3.75881,0.89037 -5.24087,2.3307 -4.53754,4.41173 -6.66177,9.75103 -5.13998,16.09513 1.22511,5.09911 5.68536,6.80457 10.00835,3.88021 4.58391,-3.10053 6.29811,-7.75014 6.60671,-13.04527 0,-0.74036 0.0638,-1.48707 -0.0104,-2.21949 -0.28608,-2.89789 -1.33235,-5.43885 -4.1958,-6.59377 -0.69301,-0.27945 -1.37095,-0.42165 -2.02806,-0.44751 z M 180.1767,74.3035 c -2.39569,0.002 -4.41914,1.53764 -5.54094,4.33031 -0.57084,1.4198 -0.55261,2.89431 -0.64929,4.1777 -0.0199,5.93086 2.85867,11.63108 6.98697,14.02567 4.15478,2.41048 8.06781,0.9396 9.57636,-3.61119 0.85956,-2.59194 0.78556,-5.2187 0.10347,-7.81991 -1.10591,-4.22101 -3.04834,-7.93268 -7.03094,-10.12994 -1.19242,-0.65809 -2.35668,-0.97372 -3.44563,-0.97264 z m 135.29778,18.71555 c -0.72984,0.0152 -1.53081,0.26134 -2.36952,0.75535 -3.54156,2.08467 -5.34122,5.42097 -5.25381,9.49099 0.0834,3.96142 3.38309,5.52179 6.65844,3.24904 2.94159,-2.04097 4.49329,-4.9493 4.65884,-7.84321 0.0397,-3.66441 -1.50446,-5.69768 -3.69395,-5.65217 z m -157.48483,0.0673 c -1.84164,-0.024 -3.21714,1.24828 -3.55686,3.50513 -0.56951,3.78262 1.68213,8.35874 5.01841,10.20236 0.74831,0.41323 1.52448,0.71572 2.26087,0.69585 2.35884,0.0464 3.76428,-1.43669 4.0199,-4.0975 0.34435,-3.56805 -2.48005,-8.38603 -5.76599,-9.83762 -0.69666,-0.30793 -1.36245,-0.46023 -1.97633,-0.46822 z m 78.59238,3.14556 c -0.68077,1.55622 -1.3069,3.00062 -1.94528,4.43897 -2.33235,5.25407 -5.2007,10.16571 -9.23231,14.32315 -4.76933,4.91766 -10.47645,6.41799 -17.10397,4.75714 -6.89109,-1.72708 -12.48987,-5.55695 -17.47906,-10.44813 -0.70858,-0.69401 -1.23682,-1.6661 -2.43677,-2.04356 -0.14834,2.00388 -0.18149,3.79122 -0.43976,5.54611 -0.26091,1.77211 -0.62387,3.54918 -1.1563,5.25639 -1.23571,3.96672 -3.2487,5.20472 -7.34653,4.87096 -3.93493,-0.32052 -7.66513,-1.43519 -11.40006,-2.61527 -0.79202,-0.25032 -1.61053,-1.09061 -2.81445,-0.25091 2.37606,3.65812 4.72403,7.27466 7.07492,10.89304 -0.23178,0.57349 -0.72193,0.78625 -1.26495,0.73724 -1.84363,-0.17615 -2.05504,0.91534 -2.00736,2.36693 0.0623,1.90191 0.008,3.80712 0.0181,5.71167 0.0225,4.31902 -0.3814,3.91768 3.91642,3.91901 42.53191,0.005 85.06362,0.003 127.59685,0.003 0.74036,0 1.48429,-0.0291 2.22465,0 1.19465,0.0477 1.72716,-0.4852 1.70729,-1.69176 -0.0331,-2.00919 0.0335,-4.02326 -0.0155,-6.03244 -0.0305,-1.25293 0.36256,-2.59091 -0.26126,-3.74053 -0.57348,-1.05558 -2.08468,-0.0447 -2.81444,-1.00626 -0.0636,-0.0834 -0.11126,-0.18155 -0.16556,-0.27162 0.0967,-0.19072 0.19171,-0.38096 0.28972,-0.57168 2.52307,-3.30714 4.56514,-6.90419 7.01801,-11.04308 -1.68469,0.53375 -2.6711,0.8397 -3.65516,1.15889 -3.52435,1.14167 -7.07703,2.13203 -10.79475,2.44195 -4.0634,0.33906 -5.89712,-0.73025 -7.256,-4.56054 -0.88738,-2.49791 -1.38567,-5.08775 -1.47706,-7.75784 -0.0371,-1.08737 0.1561,-2.24214 -0.4889,-3.75863 -1.18803,1.27677 -2.06175,2.32829 -3.05244,3.25937 -4.68589,4.40115 -9.91587,7.86763 -16.2348,9.52981 -6.70964,1.76416 -12.50316,0.40617 -17.42215,-4.61745 -4.68323,-4.78258 -7.68753,-10.57157 -10.30066,-16.61766 -0.30992,-0.71785 -0.41296,-1.54879 -1.28047,-2.18585 z m -122.01969,49.40278 c -0.64997,-0.0546 -1.32275,0.43815 -2.66441,1.41758 -30.268877,22.10896 -60.543771,44.21002 -90.804696,66.33091 -6.662724,4.8709 -13.275749,9.8122 -19.910654,14.72151 0,0 -0.003,0 -0.003,0 0,0 0,-0.003 0,-0.003 -0.39469,0.0424 -0.78622,0.0844 -1.17958,0.12675 v 0.63635 c 0.39336,0.0424 0.78622,0.0857 1.17958,0.12675 3.23429,2.72837 6.486163,5.43639 9.697942,8.18726 2.165468,1.85687 4.496078,3.52065 6.363546,5.72718 4.473976,5.28454 7.15546,11.44408 9.071932,18.00936 0.304623,1.04233 0.320206,2.08088 0.344046,3.13779 0.288729,13.23253 0.0935,26.46846 0.408716,39.70231 0.288729,12.06835 0.124167,24.14684 0.124167,36.22048 0.0066,85.58168 0.01078,171.16026 -0.0078,256.74062 -0.0013,6.25535 0.288026,12.49228 0.967467,18.70261 1.059556,9.68964 3.086329,19.18287 5.613371,28.60232 5.332216,19.87065 16.859073,34.56059 35.475473,43.57477 12.28688,5.94808 25.430404,8.41731 38.8616,9.804 4.53226,0.46886 9.08856,0.52829 13.62213,0.88986 10.39822,0.83175 20.71699,0.28795 31.01323,-1.23649 9.85123,-1.45689 19.50188,-3.83853 29.10676,-6.38942 6.29111,-1.67012 12.59733,-2.69336 19.12685,-2.1755 6.77188,0.53507 12.70345,2.6732 17.57476,7.7061 6.77719,6.99969 11.4075,15.46289 16.66421,23.5089 1.27148,0.83175 1.6061,-0.27744 2.11601,-1.02178 3.35085,-4.89118 6.7148,-9.77837 10.04975,-14.68014 2.2754,-3.34687 4.90649,-6.37795 7.91563,-9.07452 1.89396,-1.69661 3.85047,-3.32704 6.27818,-4.24753 6.81427,-2.58267 13.89812,-3.02923 20.9402,-1.75644 7.1679,1.2953 14.20069,3.33926 21.30236,5.00806 11.76902,2.76544 23.65139,4.71669 35.78331,4.73126 9.85387,0.009 19.66314,-0.70561 29.45079,-1.83404 10.13598,-1.16684 20.04323,-3.27322 29.50771,-7.15252 14.25368,-5.84213 25.73722,-14.96401 33.36205,-28.56871 3.60249,-6.42753 5.67892,-13.39843 7.6285,-20.45905 3.25681,-11.79154 4.96385,-23.79759 5.52541,-35.98249 0.2927,-6.33747 0.21844,-12.68307 0.22507,-19.03114 0.0543,-50.31038 -0.40995,-100.62206 0.194,-150.93244 0.10463,-8.68042 -0.18052,-17.3623 -0.20436,-26.04138 -0.0662,-24.04002 -0.13654,-48.08144 0.17073,-72.12277 0.30595,-23.82942 0.19973,-47.66596 0.28714,-71.49936 0.004,-1.16021 -0.0811,-2.38147 0.23281,-3.47149 2.49526,-8.66849 6.03252,-16.74006 13.36862,-22.55437 1.9072,-1.51252 3.80911,-3.03526 5.62889,-4.65108 2.19593,-1.95091 4.71471,-3.54489 6.63516,-5.76599 -0.46621,-0.91651 -1.25164,-1.29474 -1.92976,-1.79008 -22.05731,-16.11717 -44.11322,-32.2341 -66.17053,-48.35259 -14.44837,-10.55848 -28.89484,-21.11962 -43.34454,-31.67545 -2.06878,-1.51119 -2.06164,-1.48119 -3.9397,0.12933 -2.73233,2.34295 -5.42693,4.7385 -8.24932,6.96886 -7.2434,5.72293 -14.81463,10.96641 -23.20366,14.90001 -3.84752,1.8039 -7.79832,3.24175 -12.19681,3.0007 -8.63141,-0.47415 -15.59899,-4.30138 -21.3696,-10.50244 -1.17081,-1.25822 -2.30225,-1.88325 -4.06906,-1.8806 -33.57865,0.049 -67.15804,0.0435 -100.73802,0.008 -1.61318,-0.003 -2.73144,0.4181 -3.78968,1.72798 -5.20904,6.45137 -12.21035,9.56796 -20.29608,10.53348 -6.12027,0.7311 -11.73128,-0.90112 -17.13502,-3.62154 -10.50682,-5.28983 -19.70369,-12.35682 -28.09272,-20.53924 -1.24233,-1.21121 -1.86958,-1.81305 -2.51955,-1.86768 z m 244.35756,15.55189 c 0.47547,0.005 0.90466,0.52996 2.23242,1.48224 6.3666,4.56801 12.66161,9.23516 18.98716,13.86012 23.25329,16.99793 46.50779,33.99573 69.75843,50.99631 0.5907,0.43177 1.15734,0.89686 1.55467,1.20545 0.30462,0.58938 0.0571,0.8365 -0.17073,1.01662 -7.37849,5.862 -11.85584,13.68484 -15.14576,22.32155 -1.70986,4.4859 -2.71825,9.03513 -2.62819,13.91703 0.15363,8.46983 -0.0547,16.94677 -0.14745,25.42055 -0.47018,43.00341 -0.3427,86.0071 -0.28972,129.01184 0.007,5.67657 0.66754,4.82161 -4.91235,4.82956 -23.94199,0.0318 -47.88203,0.0129 -71.8227,0.0129 h -1.27271 c -3.63693,-0.005 -3.39236,0.24198 -3.34733,-3.51547 0.10993,-9.31615 0.2844,-18.63298 0.40095,-27.95045 0.0715,-5.71895 0.0844,-11.44061 0.12417,-17.16089 0.003,-0.31787 0.0943,-0.66996 -0.0129,-0.94676 -1.34961,-3.50846 0.51558,-5.75991 2.96448,-7.84061 1.12843,-0.9589 2.15862,-2.0359 3.21023,-3.08089 1.75224,-1.74297 1.72763,-1.73648 0.14227,-3.4715 -0.62646,-0.68077 -1.53658,-1.15375 -1.75644,-2.25569 0.77878,-0.89665 1.93967,-1.1838 2.95154,-1.6659 8.90425,-4.25147 16.72237,-9.95187 23.29162,-17.32903 0.99333,-1.11518 2.08909,-2.09678 3.29301,-2.97224 1.88998,-1.37478 3.64255,-2.9114 5.17361,-4.67953 3.87533,-4.47133 4.29429,-9.35024 1.14078,-14.30764 -0.64897,-1.01982 -1.02139,-1.99722 -1.14854,-3.20247 -0.4278,-4.10578 -2.29787,-7.47823 -5.6858,-9.8609 -1.29266,-0.9099 -2.04874,-1.94719 -2.4911,-3.46633 -1.23041,-4.2316 -3.99832,-6.93054 -8.4511,-7.57157 -1.35093,-0.1947 -2.39608,-0.67815 -3.24902,-1.70989 -0.33376,-0.40396 -0.7084,-0.8898 -1.16665,-1.05801 -3.66077,-1.34696 -3.8151,-4.55429 -4.276,-7.69057 -0.83043,-5.64876 -1.77509,-11.27961 -2.69028,-16.91513 -0.11655,-0.72315 -0.34775,-1.43239 -0.63118,-2.56611 -3.55746,2.74822 -6.91915,5.34436 -10.41966,8.04755 -3.69123,-4.6488 -7.24409,-9.11578 -10.78699,-13.59108 -16.89462,-21.33682 -33.79177,-42.67077 -50.66521,-64.02348 -0.81056,-1.02512 -1.66991,-1.81151 -2.93343,-2.27639 -12.11338,-4.46603 -24.20432,-8.98216 -36.30842,-13.47468 -0.48872,-0.18145 -1.01701,-0.25979 -1.71764,-0.43457 0.0689,3.39719 0.79489,6.58589 1.25977,9.79105 1.56417,10.77701 3.28887,21.52956 4.84509,32.30922 0.22648,1.56947 0.81004,2.79388 1.78748,3.94747 10.8141,12.76898 21.61816,25.54542 32.42563,38.31837 9.43932,11.15581 18.8825,22.30828 28.3152,33.47071 1.40656,1.66483 1.41682,1.72457 -0.3725,3.19471 -2.61975,2.15089 -5.29539,4.23143 -7.93633,6.35319 -0.47283,0.37879 -1.13538,0.61179 -1.20028,1.71505 2.65154,0.94565 5.39631,1.93019 8.14586,2.90498 2.79193,0.98936 5.58396,1.97816 8.38384,2.94897 0.96552,0.33376 1.49738,0.86109 0.85105,1.86767 -1.8264,2.84358 -3.01621,6.01315 -4.50621,9.04348 -3.00384,-1.9019 -2.98045,-1.87734 -5.66511,0.57685 -6.64474,6.07258 -13.31897,12.11262 -19.96239,18.18785 -2.27937,2.08468 -1.95494,1.81002 -3.97076,-0.14486 -9.03002,-8.76121 -19.37602,-15.37685 -31.3702,-19.3131 -4.73489,-1.55358 -9.56317,-2.68453 -14.54044,-3.15074 -2.22639,-0.20794 -2.25245,-0.29882 -2.33589,-2.50402 -0.0199,-0.52846 -0.005,-1.06111 -0.005,-1.59089 0,-46.92906 -0.001,-93.85791 0.005,-140.78698 0,-4.14684 -0.40658,-3.81415 3.69655,-3.81812 10.70019,-0.008 21.39957,0.0702 32.0971,-0.0543 2.6979,-0.0318 4.79402,0.65022 6.8628,2.4316 5.12825,4.41438 11.08035,7.36988 17.65754,9.02279 7.53875,1.8966 14.85784,1.23222 22.06547,-1.67626 9.52012,-3.84222 17.96835,-9.43944 26.11899,-15.55706 1.27014,-0.95227 2.47038,-1.99668 3.74053,-2.94895 1.51052,-1.13174 2.03372,-1.64743 2.5092,-1.64263 z m -245.50352,0.57168 c 0.81271,0.023 1.60442,0.67032 3.17919,1.95304 7.98905,6.507 16.32076,12.47384 25.8422,16.60213 5.19845,2.25421 10.60251,3.90095 16.26584,3.84399 9.76514,-0.0993 18.98723,-2.55129 26.60014,-8.86757 3.54157,-2.93894 7.05251,-3.87114 11.48542,-3.76121 10.48299,0.25827 20.97632,0.0828 31.46593,0.0828 0.74169,0 1.48296,0.0249 2.22465,0.0103 1.06486,-0.0212 1.55037,0.48344 1.51328,1.54432 -0.0238,0.63441 0.005,1.27075 0.005,1.90648 v 141.44145 c 0,0.63573 -0.0265,1.27206 0,1.90647 0.0464,1.14035 -0.41693,1.81269 -1.61158,1.89613 -4.44219,0.30992 -8.72386,1.50993 -13.03492,2.48075 -0.85824,-2.86345 -0.86044,-2.87394 -3.77157,-2.87394 -19.60047,-0.003 -39.20025,-0.003 -58.80071,-0.003 -0.21191,0 -0.42445,-0.003 -0.63636,0 -2.83431,0.0384 -2.83408,0.0387 -2.87911,2.74719 -0.009,0.52977 -0.003,1.05852 -0.003,1.5883 v 18.118 3.50512 c -10.34657,-2.86081 -18.5417,0.0353 -25.24207,9.01244 v -3.44305 c 0,-9.43005 0.005,-18.85928 -0.003,-28.28933 -0.003,-3.20383 -0.0209,-3.23217 -3.04726,-3.2335 -19.91833,-0.008 -39.834326,-0.009 -59.752654,0 -2.815771,0.001 -2.85445,0.0357 -2.858423,2.76012 -0.01457,11.33725 0.0031,22.67284 -0.02069,34.00876 -0.0026,1.48735 -0.04184,2.85433 2.07462,2.58939 1.711183,-0.21454 1.918852,0.79991 1.777135,2.15481 -0.540372,5.15607 -1.05196,10.31431 -1.585712,15.4717 -0.697982,6.7348 -1.400745,13.46822 -2.118594,20.20037 -0.132448,1.24498 0.137534,2.00785 1.608993,2.09791 2.850206,0.17483 5.695529,0.45204 8.536464,0.75534 1.319147,0.14039 1.956371,-0.33092 2.09014,-1.66332 0.263565,-2.62902 0.634119,-5.24906 0.895035,-7.87941 1.137699,-11.47632 2.250067,-22.95535 3.373197,-34.433 0.217209,-2.21049 0.505234,-4.41935 0.636354,-6.63515 0.123174,-2.10454 0.05076,-2.1158 -2.004775,-2.235 -0.527129,-0.0305 -1.059846,-0.0288 -1.5883,-0.0155 -1.068827,0.0265 -1.515993,-0.49656 -1.510696,-1.5495 0.01987,-3.92035 8.91e-4,-7.83927 0.01811,-11.75963 0.0066,-1.6741 1.290569,-1.3577 2.294498,-1.37359 1.037041,-0.0146 2.23405,-0.20309 2.219481,1.45379 -0.01325,1.48338 0.04352,2.96725 0.0078,4.4493 -0.02914,1.24895 0.323207,2.03235 1.764203,2.01513 2.965433,-0.0358 5.931859,-0.0371 8.898617,0 1.427752,0.0172 1.81687,-0.74006 1.777136,-1.99961 -0.03973,-1.27014 0.07473,-2.54942 -0.02328,-3.81294 -0.133768,-1.71384 0.665286,-2.16579 2.245349,-2.1393 6.599711,0.1086 5.268871,-0.62758 5.398667,5.01324 0.06622,2.89788 0.0501,2.90966 3.044675,2.93085 2.33102,0.0172 4.66376,-0.0628 6.99214,0.0233 1.68072,0.0623 2.26064,-0.65427 2.15998,-2.26088 -0.0848,-1.37211 0.0214,-2.75503 -0.0104,-4.13113 -0.0437,-1.90985 1.35181,-1.49917 2.44712,-1.54949 1.12711,-0.053 2.11392,0.0119 2.09273,1.60124 -0.0503,3.81308 -0.0356,7.62704 -0.005,11.44144 0.0106,1.23306 -0.55043,1.71516 -1.73316,1.65556 -0.63441,-0.0318 -1.27207,0.0277 -1.90648,0.005 -1.05293,-0.0371 -1.60649,0.39975 -1.49259,1.50036 0.15099,1.47279 0.3277,2.94289 0.47339,4.41568 0.91519,9.26582 1.80967,18.53333 2.73943,27.79782 0.58143,5.78915 1.2456,11.56954 1.79524,17.36266 0.12582,1.32974 0.58212,1.92302 1.95821,1.76938 2.31249,-0.25827 4.63695,-0.43128 6.95076,-0.68292 1.31252,-0.14172 1.94654,0.26894 1.94786,1.70729 0.004,7.52152 0.0607,15.04319 0.12158,22.56472 0.009,1.18935 -0.4589,1.77352 -1.68401,1.70728 -0.63309,-0.0331 -1.27074,0.003 -1.90648,0.003 H 42.917971 c -0.635734,0 -1.273393,-0.0343 -1.906478,-0.003 -1.256897,0.0623 -1.690364,-0.58972 -1.640035,-1.75126 0.03179,-0.74169 0.0026,-1.48555 0.0026,-2.22724 -0.01457,-38.67115 0.01486,-77.34197 -0.06726,-116.01312 -0.03046,-14.40335 -0.321654,-28.80543 -0.504427,-43.20745 -0.0596,-4.67794 -2.003099,-8.85099 -3.730176,-13.03492 -3.113771,-7.5427 -7.499858,-14.2246 -13.981693,-19.36742 -0.153635,-0.11655 -0.222425,-0.34192 -0.444931,-0.70879 3.90314,-2.8608 7.815987,-5.73761 11.736345,-8.60371 25.908797,-18.93427 51.815608,-37.86829 77.728384,-56.79594 1.65886,-1.21187 2.49322,-1.81308 3.30594,-1.79008 z m 152.11461,35.41081 c 1.75621,0.15098 3.31428,1.10866 5.0003,1.65039 1.10591,0.35492 2.14912,0.96332 3.27489,1.1951 6.28317,1.29663 10.32592,5.32836 14.16019,10.25927 17.08402,21.96592 34.44967,43.71147 51.72838,65.52641 3.19721,4.03559 3.23076,4.00927 -0.84588,7.22237 -2.49393,1.96416 -5.05787,3.84586 -7.45777,5.91862 -1.3165,1.1377 -2.06788,0.85608 -3.07313,-0.34923 -5.0872,-6.0911 -10.23745,-12.1285 -15.36305,-18.18784 -13.52789,-15.99797 -27.05394,-31.9989 -40.58183,-47.9982 -0.0675,-0.0808 -0.13404,-0.16382 -0.20953,-0.23799 -2.87007,-2.81709 -4.68092,-6.03788 -5.00806,-10.22048 -0.35362,-4.51768 -1.27763,-8.98991 -1.95045,-13.48243 -0.0636,-0.42514 -0.0317,-0.84303 0.32594,-1.29599 z m -81.57497,19.12426 c -9.63931,0 -19.27614,0.001 -28.91015,0.005 -0.74037,0 -1.48297,0.0236 -2.22466,0.008 -1.05028,-0.0225 -1.5628,0.46672 -1.54691,1.52363 0.0106,0.74169 -0.008,1.48037 -0.008,2.22206 0,9.84991 -0.001,19.70047 0,29.55168 0,1.48206 0.0278,2.96468 0,4.44673 -0.0185,1.01718 0.35355,1.4683 1.43827,1.62193 2.5522,0.36158 2.53358,0.43096 2.26604,2.84808 -0.97744,8.82875 -1.95776,17.65883 -2.91533,26.4889 -0.29535,2.73366 -0.48303,5.48078 -0.78898,8.21311 -0.14834,1.3218 0.35634,2.00944 1.65297,2.14188 2.94557,0.30065 5.89223,0.59457 8.83912,0.88727 1.02512,0.10199 1.55521,-0.30818 1.64263,-1.39687 0.15231,-1.89661 0.41453,-3.78409 0.60789,-5.67805 0.71123,-6.94406 1.38997,-13.89273 2.12636,-20.83414 0.73507,-6.9401 1.52795,-13.8721 2.28156,-20.81087 0.0901,-0.84102 0.0747,-1.69265 0.14228,-2.53765 0.0887,-1.08074 -0.39392,-1.56703 -1.46672,-1.53656 -0.63441,0.0185 -1.27339,-0.0396 -1.90648,-0.008 -1.16683,0.057 -1.76962,-0.38585 -1.75903,-1.63745 0.0305,-3.81175 0.0437,-7.62711 0,-11.43886 -0.0212,-1.84363 1.23782,-1.6148 2.39539,-1.64262 1.12975,-0.0278 2.16538,0.009 2.10048,1.59865 -0.0503,1.26882 -0.0226,2.54022 0.005,3.81036 0.0556,2.48466 0.0658,2.51982 2.44712,2.56353 2.32838,0.0424 4.65986,0.0331 6.98956,0.003 2.71246,-0.0358 2.71099,-0.0574 2.76529,-2.90756 0.11126,-5.75207 -1.03424,-5.00259 5.34693,-5.07014 0.31787,-0.003 0.63667,0.0131 0.95454,0.008 1.06485,-0.0172 1.52104,0.54381 1.52104,1.5676 0,1.48206 0.0448,2.96467 0.0103,4.44672 -0.0305,1.27809 0.41341,1.98193 1.81335,1.96338 2.8608,-0.0397 5.72096,-0.0398 8.58044,0.003 1.38537,0.0212 1.86608,-0.63421 1.8237,-1.94011 -0.0477,-1.48073 0.0452,-2.96857 -0.008,-4.4493 -0.057,-1.59066 0.97742,-1.6305 2.0979,-1.59607 1.12578,0.0358 2.45134,-0.27784 2.43677,1.5883 -0.0291,3.81308 -0.0227,7.62711 0.008,11.43887 0.009,1.21054 -0.50993,1.75413 -1.70988,1.68659 -0.42117,-0.0238 -0.84762,-0.0173 -1.27012,0.005 -2.17474,0.10993 -2.22391,0.11383 -2.09014,2.43161 0.0967,1.68734 0.37004,3.36217 0.53029,5.04685 1.12976,11.89881 2.2473,23.79913 3.37837,35.69794 0.23973,2.52572 0.5507,5.04713 0.78381,7.57417 0.14039,1.53106 0.77585,2.24269 2.43936,2.02548 2.62108,-0.34171 5.26862,-0.46582 7.89235,-0.78899 1.93766,-0.23972 2.13088,-0.56603 1.93752,-2.46263 -0.9589,-9.3625 -1.92558,-18.72632 -2.87653,-28.09015 -0.25695,-2.52571 -0.46919,-5.05487 -0.70362,-7.58193 -0.0914,-0.99996 0.23507,-1.50697 1.3529,-1.6659 2.46745,-0.35098 2.48719,-0.42242 2.48851,-2.7627 0.0106,-11.22732 0.0132,-22.45551 0,-33.68283 -0.004,-2.86742 -0.0329,-2.88939 -3.04208,-2.89204 -9.95718,-0.0119 -19.91401,-0.005 -29.86987,-0.005 z m -120.935816,0.008 c -2.615779,0.001 -2.655203,0.0494 -2.661825,2.63338 -0.02119,7.52284 -0.0078,15.04318 -0.0078,22.56471 0,4.02499 0.01072,8.05148 -0.0052,12.0778 -0.0053,1.14299 0.06595,1.98357 1.611581,2.11601 2.352215,0.20264 2.402357,0.33792 2.159983,2.64113 -0.717849,6.83679 -1.497223,13.66757 -2.237588,20.50304 -0.490045,4.5243 -0.987187,9.0447 -1.414984,13.57298 -0.252969,2.68465 -0.121848,2.78907 2.64889,3.09899 2.101895,0.23442 4.205881,0.47856 6.314398,0.64411 2.855504,0.22516 3.174033,0.31905 3.228335,-2.69804 0.02516,-1.36815 0.323909,-2.72809 0.465625,-4.09492 0.709902,-6.83943 1.395449,-13.68303 2.118594,-20.52114 0.878108,-8.30824 1.785746,-16.61163 2.687693,-24.9808 -1.309876,-0.60262 -2.281914,-0.4502 -3.205053,-0.3906 -1.621121,0.10463 -2.274859,-0.4739 -2.229828,-2.16257 0.09536,-3.59984 0.07783,-7.20392 0.01293,-10.80509 -0.03179,-1.73767 1.011545,-1.79152 2.276391,-1.7849 1.243654,0.007 2.36608,0.0107 2.291911,1.76162 -0.06357,1.4794 0.01993,2.96592 -0.0026,4.4493 -0.01854,1.15492 0.422374,1.78767 1.66073,1.77972 3.071389,-0.0212 6.145406,-0.0116 9.216795,-0.0129 1.046312,-0.001 1.528802,-0.53978 1.528802,-1.5702 -0.0013,-1.48205 0.05405,-2.96725 0.01035,-4.4493 -0.03709,-1.27412 0.35582,-2.01524 1.784896,-1.95564 1.374774,0.0583 2.755033,0.037 4.131132,0.005 1.195974,-0.0278 1.744129,0.49542 1.71764,1.70729 -0.03179,1.48206 0.04642,2.96726 -0.0026,4.44932 -0.04503,1.38669 0.616032,1.87244 1.924584,1.83403 1.588014,-0.045 3.178154,-0.003 4.767484,-0.003 5.39447,0 5.39511,2.1e-4 5.49179,-5.25121 0.004,-0.21191 -0.008,-0.42445 0.003,-0.63636 0.10331,-1.97872 0.22298,-2.09261 2.24276,-2.09791 2.05289,-0.007 2.24202,0.10302 2.27381,2.05393 0.053,3.2833 0.0128,6.56986 0.0181,9.85316 0.003,2.1893 0.41304,2.89726 -2.80669,2.84031 -2.38135,-0.0437 -2.46622,0.0899 -2.25828,2.54283 0.29535,3.47799 0.76569,6.93914 1.0968,10.41448 0.93374,9.79427 1.82645,19.59312 2.75754,29.38873 0.25959,2.7363 0.53417,5.47717 0.9209,8.19758 0.32449,2.2754 0.40574,2.31621 2.51955,2.16257 2.53234,-0.1841 5.06152,-0.42227 7.58193,-0.72689 2.10587,-0.25562 2.31631,-0.51508 2.10308,-2.65406 -0.70196,-7.05135 -1.46151,-14.09839 -2.18068,-21.14974 -0.48342,-4.73489 -0.93156,-9.47312 -1.41498,-14.20933 -0.11788,-1.16022 0.23115,-1.69271 1.51587,-1.81853 2.30188,-0.22648 2.33065,-0.32435 2.3333,-2.59974 0.0159,-11.33461 0.0172,-22.67024 0,-34.00617 -0.005,-2.65684 -0.0475,-2.71224 -2.60233,-2.71356 -20.12892,-0.0146 -40.257509,-0.0146 -60.386428,0 z M 188.2346,275.16672 c -2.85153,0.0901 -5.70815,0.0499 -8.56233,0.0181 -1.18273,-0.0133 -1.71776,0.44204 -1.71246,1.66848 0.0265,5.81432 0.0225,11.62854 0,17.44285 -0.005,1.22511 0.5901,1.71889 1.73574,1.72022 2.85418,0.004 5.70816,-3.1e-4 8.56233,0.0129 1.30193,0.007 1.90578,-0.55928 1.88061,-1.91683 -0.0516,-2.85286 -0.0168,-5.70815 -0.0155,-8.56233 0.003,-2.74822 -0.0376,-5.49851 0.0233,-8.24674 0.0291,-1.38669 -0.27993,-2.18835 -1.91165,-2.1367 z m -99.475665,0.003 c -1.338978,0.0454 -1.712363,0.74687 -1.678837,2.09532 0.06887,2.74955 0.01937,5.5023 0.02069,8.2545 0.0013,2.85682 0.03613,5.71711 -0.01552,8.57526 -0.02384,1.34299 0.539443,1.94149 1.859915,1.93752 2.858152,-0.0106 5.714525,-0.0174 8.572678,0.008 1.160214,0.0106 1.75398,-0.41304 1.748682,-1.66332 -0.02781,-5.82093 -0.03853,-11.64259 0.0052,-17.46352 0.01059,-1.46881 -0.73664,-1.7543 -1.976321,-1.73575 -2.752197,0.041 -5.50754,0.073 -8.257088,-0.008 -0.09801,-0.003 -0.19011,-0.003 -0.279375,0 z M 353.67385,286.9578 c 0.16587,0.006 0.34409,0.0872 0.53547,0.28455 0.85824,0.88738 0.33815,1.72759 -0.5691,2.3514 -2.1562,1.48206 -4.06805,3.24366 -6.42821,4.52175 -3.61441,1.95753 -6.74455,4.70086 -9.69276,7.59746 -0.52581,0.51786 -1.04587,1.04587 -1.61935,1.5081 -0.74699,0.6066 -1.35414,0.24415 -1.96339,-0.46045 2.15488,-2.19328 4.70171,-3.89994 7.06717,-5.81773 3.77202,-3.0555 7.5801,-6.06733 11.4104,-9.04865 0.36852,-0.28708 0.7622,-0.95424 1.25977,-0.93643 z m 9.0409,14.00498 c 0.61322,1.44762 1.13527,2.89587 0.92866,4.49845 -0.84897,0.13774 -1.34916,-0.32262 -1.7849,-0.73982 -0.7205,-0.69004 -2.20451,-1.05272 -1.84956,-2.27121 0.2874,-0.99201 1.48996,-1.38676 2.7058,-1.48742 z m 7.85872,6.26783 c 1.68832,-0.0516 1.57516,1.06867 1.1563,5.02876 -1.99329,-1.26352 -3.53296,-2.42049 -4.71833,-3.72242 -10e-4,-0.74169 0.38269,-0.74616 0.6648,-0.80709 1.30189,-0.27899 2.23658,-0.47905 2.89723,-0.49925 z m -22.6475,1.77196 c 0.32515,-0.0747 0.67284,-0.007 1.04766,0.2768 4.26869,3.23959 8.59842,6.40172 13.23927,10.40154 -3.52699,0.39601 -5.72259,-0.87376 -7.90528,-2.16774 -1.9721,-1.16816 -1.98667,-1.2004 -3.47667,0.62601 -1.67012,2.04759 -3.25044,4.17051 -4.95632,6.18764 -0.93506,1.10458 -0.67191,1.79553 0.40354,2.55576 4.86734,3.44224 10.12936,5.69228 16.22446,5.25122 1.21981,-0.0874 1.75738,0.28636 2.04875,1.36584 0.13642,0.50725 0.40216,0.97643 0.57169,1.47707 0.40395,1.19332 1.80678,2.19552 1.47964,3.38354 -0.35892,1.29796 -1.94765,1.84696 -3.06018,2.62043 -4.44219,3.08993 -9.2312,5.52658 -14.24555,7.57417 -1.87806,0.76686 -3.08279,0.45296 -4.43637,-0.99333 -3.5376,-3.78262 -7.152,-7.50141 -10.87236,-11.10257 -1.50855,-1.46087 -1.73934,-2.93291 -1.2546,-4.83216 1.82774,-7.16923 5.76465,-13.10441 10.67834,-18.47239 1.14035,-1.24497 2.39167,-2.3922 3.59826,-3.57755 0.28873,-0.28343 0.59057,-0.4996 0.91572,-0.57428 z m 33.21977,4.90976 c 0.0664,-6.1e-4 0.1345,8.9e-4 0.20437,0.008 0.26488,1.92839 -1.01379,3.03998 -2.01772,4.45448 -1.25822,-1.07677 -2.73715,-1.65346 -3.55168,-3.12227 0.9589,-0.75229 1.94271,-0.58126 2.82479,-0.55874 0.9176,0.0236 1.5443,-0.77208 2.54024,-0.78123 z m -1.32961,8.70978 c 2.36281,1.98667 2.37268,2.002 0.41647,3.66551 -0.79731,0.67811 -1.64976,1.29345 -2.50403,1.89872 -0.49534,0.35098 -1.09007,0.86811 -1.65296,0.25092 -0.57349,-0.62911 -0.40587,-1.39843 0.13451,-1.99443 1.12313,-1.24101 2.29614,-2.438 3.60601,-3.82072 z m -140.43,9.38753 c 12.95978,0.1303 24.89291,4.45557 35.82728,12.26923 14.77153,10.55715 24.54998,24.9435 31.12188,41.65535 3.46077,8.79962 6.06529,17.87428 6.705,27.33479 0.45694,6.75202 0.0467,13.55537 0.3725,20.32196 0.54302,11.28427 -1.57384,22.10687 -5.00547,32.75673 -0.28344,0.89268 -0.41919,1.84264 -1.24167,2.69028 -4.4859,-2.78531 -8.43904,-6.28502 -12.59517,-9.52461 -10.10419,-7.8778 -14.97121,-18.62343 -17.34194,-30.83216 -1.14962,-5.92027 -2.32137,-11.84028 -2.94121,-17.83604 -0.33641,-3.25019 -0.0867,-6.55688 -0.13969,-9.84022 -0.0199,-1.2092 0.77366,-1.91409 1.48224,-2.69286 2.78663,-3.06344 5.41748,-6.23689 7.26376,-9.98507 5.27659,-10.70947 2.64396,-21.03488 -7.13442,-27.922 -5.40108,-3.8038 -11.44836,-5.31039 -17.99641,-5.10377 -3.30582,0.1033 -3.33572,0.0578 -3.83107,-3.2361 -0.23575,-1.56814 -0.33988,-3.15645 -0.51736,-4.73386 -0.15893,-1.40391 -0.62389,-2.23026 -2.36951,-2.21172 -8.68704,0.094 -17.37246,0.0751 -26.0595,0.0155 -1.49,-0.009 -2.13304,0.59397 -2.28932,1.9608 -0.22648,1.99726 -0.41103,4.00046 -0.69844,5.98845 -0.32846,2.25685 -0.36969,2.30785 -2.75236,2.235 -3.9442,-0.1192 -7.81928,0.17254 -11.59924,1.42016 -5.29381,1.74695 -9.67071,4.83162 -13.0401,9.21421 -4.41438,5.74279 -5.09129,12.15144 -2.80927,18.9432 1.65555,4.92693 4.64679,9.02331 8.14068,12.75295 1.26087,1.34696 1.747,2.6694 1.65297,4.49846 -0.64633,12.6074 -2.06692,25.08019 -5.7065,37.22932 -1.77343,5.92292 -4.95142,10.92891 -9.29957,15.30356 -5.39711,5.42757 -11.32345,10.1646 -17.57218,14.36971 -1.03307,-0.35495 -1.0502,-1.16375 -1.27271,-1.83922 -2.19063,-6.65003 -3.76037,-13.43865 -4.67953,-20.38404 -0.30992,-2.34559 0.20713,-4.64307 0.19918,-6.97145 -0.0225,-6.99174 0.31826,-13.99268 0.0388,-20.97125 -0.37746,-9.39163 1.6903,-18.30203 4.62263,-27.06059 5.54677,-16.56748 14.29122,-31.13747 27.51845,-42.77802 10.01678,-8.8155 21.53045,-14.6258 34.81067,-16.44692 3.10044,-0.42514 6.14588,-0.61986 9.1366,-0.58979 z m -53.41757,0.26903 c 0.71379,0.009 1.36157,0.2112 1.82629,0.97781 1.05955,1.74694 -0.0127,6.3038 -1.51329,7.63884 -7.01691,6.24211 -12.84641,13.47019 -17.85414,21.38773 -0.21721,0.3417 -0.38043,0.74582 -1.31151,0.93124 0.34303,-3.3323 0.66222,-6.48121 0.99333,-9.62809 0.0874,-0.84103 0.27087,-1.6772 0.30266,-2.51955 0.0437,-1.15359 0.57674,-2.482 -0.0802,-3.42235 -0.73772,-1.05559 -2.16861,-0.47378 -3.29042,-0.51219 -1.25955,-0.0437 -1.62987,-0.64833 -1.62193,-1.79265 0.0265,-3.70713 0.0626,-7.41622 -0.0129,-11.12069 -0.0344,-1.70721 0.9253,-1.85151 2.22723,-1.8237 1.21452,0.0252 2.39113,-0.0692 2.29709,1.72281 -0.0702,1.37345 0.0495,2.75768 -0.0207,4.13113 -0.0755,1.46351 0.46325,2.135 1.9996,2.09791 2.7522,-0.0662 5.50748,-0.0702 8.25968,0 1.58933,0.0397 2.01245,-0.74573 1.9608,-2.14964 -0.0503,-1.3761 0.0292,-2.75503 -0.003,-4.13113 -0.0291,-1.23438 0.56734,-1.72563 1.74609,-1.66074 0.42118,0.0238 0.85696,-0.0638 1.26754,0.0104 0.88357,0.15868 1.90966,-0.14896 2.82738,-0.1371 z m 132.81703,7.24047 c 0.38921,-0.0267 0.78438,0.1557 1.22873,0.60273 1.78005,1.78929 3.6307,3.50586 5.6677,5.46074 -10.76774,6.12821 -12.8987,9.68338 -13.85495,22.77684 -1.46218,-2.39062 -2.72714,-4.54373 -4.07939,-6.64033 -1.3761,-2.13235 -2.77363,-4.25941 -4.29409,-6.29111 -0.81719,-1.09267 -0.69669,-1.77343 0.27678,-2.64889 4.6488,-4.17333 9.25898,-8.38962 13.86011,-12.61328 0.42117,-0.38674 0.80588,-0.62005 1.19511,-0.6467 z m -174.89662,17.61808 c 0.14879,-0.003 0.29903,-0.002 0.4501,0.003 4.55874,0.1245 8.20713,3.9389 8.07601,8.44334 -0.12582,4.36935 -4.16856,8.22034 -8.53129,8.13293 -4.44748,-0.0901 -8.27995,-4.03079 -8.18724,-8.42265 0.0975,-4.63953 3.57993,-8.06578 8.19242,-8.1562 z m 188.57565,0 c 4.768,-0.0119 8.36559,3.6385 8.31659,8.433 -0.045,4.36007 -3.76916,8.11943 -8.06566,8.14327 -4.63821,0.0278 -8.51836,-3.80324 -8.51836,-8.41231 0,-4.54417 3.65306,-8.15204 8.26743,-8.16396 z m -96.86299,0.15521 c 0.16907,-0.003 0.34953,0.005 0.54323,0.0259 0.52316,0.0569 1.05852,0.009 1.5883,0.008 4.63556,-0.003 4.6255,-0.002 5.05462,4.51397 0.23045,2.41977 0.48239,4.84022 0.76052,7.256 0.21721,1.88601 0.39684,2.02423 2.17292,1.41499 3.09788,-1.06221 6.13293,-2.33815 9.40563,-2.79376 5.59446,-0.78142 10.7827,0.11242 15.10437,4.03543 3.41574,3.10052 4.00591,6.0698 2.06427,10.26961 -1.80919,3.91109 -4.55291,7.16201 -7.85872,9.84798 -1.80919,1.46881 -2.70346,2.94457 -2.52731,5.33917 0.20264,2.75087 0.0102,2.79748 -2.7446,2.8041 -7.09373,0.0199 -14.18535,0.008 -21.27908,0.008 -6.98777,0 -13.97571,0.0134 -20.96348,-0.008 -2.65949,-0.008 -2.84038,-0.0576 -2.67218,-2.56611 0.16556,-2.45817 -0.64757,-4.10067 -2.59715,-5.62113 -3.01974,-2.35619 -5.43925,-5.33371 -7.2948,-8.71237 -2.78795,-5.07528 -1.91798,-9.03826 2.82221,-12.40633 5.45671,-3.87666 11.43818,-3.93876 17.59287,-2.10308 1.92177,0.57349 3.77728,1.37189 5.68581,1.99703 1.74164,0.57083 1.92706,0.4232 2.15222,-1.46414 0.38806,-3.25283 0.82397,-6.50177 1.09681,-9.7652 0.12052,-1.44513 0.71006,-2.06 1.89354,-2.07979 z m -112.57785,2.0591 c 0.07,-0.002 0.14337,0.002 0.22247,0.0103 0.70725,0.0781 0.79841,0.62375 0.72689,1.16147 -0.19337,1.46351 -0.43707,2.92252 -0.66222,4.38206 0.18542,1.48868 0.36948,2.97741 0.55357,4.46741 0,0 0,0.003 0,0.003 -0.0172,1.59331 1.60443,2.88123 0.86141,4.61228 -0.0834,1.63039 -0.16667,3.2598 -0.28455,5.55904 -0.77215,-2.31778 -1.33398,-3.97358 -1.03731,-5.78409 -0.0477,-1.46219 -0.092,-2.92372 -0.13969,-4.38723 0,0 0,-0.003 0,-0.003 -0.86883,-1.40921 -0.54492,-2.95875 -0.5277,-4.47259 0,0 0.003,0 0.003,0 -0.19999,-1.46351 -0.43364,-2.92492 -0.58462,-4.3924 -0.0672,-0.65295 0.19205,-1.13962 0.86917,-1.1563 z m -34.135505,19.48383 c -1.268761,0.0249 -1.833322,0.51498 -1.815938,1.9789 0.06357,5.60241 0.05948,11.20282 0.0052,16.8039 -0.01457,1.53503 0.642708,2.06988 2.08238,2.05134 2.748224,-0.0371 5.49593,-0.0399 8.244155,0.005 1.336364,0.0212 1.89675,-0.51264 1.870261,-1.87284 -0.05563,-2.85286 -0.01811,-5.70689 -0.01811,-8.55975 0,-2.85285 -0.04143,-5.7069 0.01552,-8.55974 0.02781,-1.3761 -0.53371,-1.86963 -1.878022,-1.84182 -2.746899,0.057 -5.495992,0.065 -8.241567,-0.005 -0.09089,-0.002 -0.17927,-0.002 -0.263855,0 z m 238.294085,7.256 c 3.49256,0.0636 6.98659,-0.0246 10.47916,0.031 2.17871,0.0358 2.31575,0.14964 2.29191,2.42901 -0.0649,6.34674 -0.26905,12.69348 -0.32335,19.0389 -0.14701,17.14759 -0.13455,34.29631 -0.40871,51.44124 -0.14966,9.31085 -0.28982,18.6215 -0.34147,27.93235 -0.0172,3.21575 -0.0248,3.21635 3.29559,3.23092 0.84632,0.004 1.6979,0.0491 2.54025,-0.005 1.36418,-0.0887 1.86912,0.50765 1.8625,1.85991 -0.005,1.29663 -0.37935,1.94439 -1.79783,1.92717 -4.12565,-0.0503 -8.25733,-0.0168 -12.38563,-0.0155 -3.91771,0.003 -7.83285,0.0293 -11.74929,-0.008 -2.06083,-0.0199 -2.41139,-0.49587 -2.22464,-2.40572 0.0901,-0.91917 0.49512,-1.33216 1.38912,-1.33481 1.58801,-0.007 3.17688,-0.0325 4.76489,-0.0233 1.03571,0.008 1.56943,-0.4208 1.54691,-1.50552 -0.0265,-1.27014 0.0105,-2.54156 0.003,-3.81038 -0.0424,-6.98644 0.0409,-13.97715 -0.16037,-20.95831 -0.62117,-21.47985 -0.34794,-42.96778 -0.62342,-64.45029 -0.0477,-3.69917 -0.18758,-7.39955 -0.35181,-11.0974 -0.0715,-1.6145 0.53408,-2.30686 2.19361,-2.27639 z m -183.53396,0.0259 c 1.74744,-10e-4 3.49525,0.009 5.24087,0.0673 2.39989,0.0795 2.44176,0.1955 2.4497,2.61526 0.0252,7.30829 0.0104,14.61491 0.0104,21.9232 -0.0384,-0.003 -0.0767,-0.003 -0.11382,-0.003 -0.19204,18.10517 -0.38077,36.20742 -0.57944,54.31261 -0.0424,3.83026 -0.0583,3.8241 -3.8621,2.96189 -2.37209,-0.53773 -4.73603,-1.12296 -7.12666,-1.55208 -1.7774,-0.31919 -2.37127,-1.15815 -2.35141,-3.01105 0.0755,-7.09373 -0.0152,-14.19173 -0.0854,-21.28684 -0.17085,-17.46942 -0.3643,-34.93668 -0.5484,-52.40611 -0.007,-0.63441 0.0255,-1.27473 -0.0155,-1.90649 -0.0781,-1.25955 0.61521,-1.70343 1.73834,-1.70211 1.7476,0.002 3.49601,-0.0114 5.24345,-0.0129 z m 92.57665,31.2745 c 0.57365,0.003 1.14492,0.22713 1.8237,0.6648 6.85533,4.42368 13.98873,8.38499 21.19371,12.19939 1.60258,0.84897 2.47454,1.92467 2.57387,3.63188 0.14967,2.53499 0.83579,5.02285 0.65964,7.59228 -0.16158,4.56006 -0.61765,9.06965 -2.354,13.36085 -2.44757,6.05007 -6.72174,10.23174 -12.90558,12.28993 -1.80389,0.59997 -2.35722,1.48666 -2.55059,3.33956 -0.85824,8.20494 -1.85536,16.40218 -4.31221,24.32634 -0.43706,1.40788 -0.94389,2.83254 -1.67366,4.10268 -1.60258,2.78531 -3.25362,2.75434 -4.87872,0.0207 -1.03571,-1.74297 -1.70988,-3.65224 -2.20654,-5.59785 -1.59993,-6.26065 -2.67743,-12.62057 -3.39131,-19.04148 -0.0344,-0.31522 -0.0514,-0.6354 -0.0673,-0.95195 -0.16688,-3.39455 -1.03298,-5.68485 -4.91493,-7.16028 -8.13342,-3.08993 -11.43898,-10.18914 -12.75813,-18.36892 -0.69798,-4.33093 -0.38742,-8.6537 0.0284,-12.97801 0.21324,-2.20653 1.00416,-3.76809 3.24645,-4.90976 7.07518,-3.60514 13.97786,-7.5507 20.65306,-11.86309 0.68474,-0.44237 1.2604,-0.6602 1.83405,-0.65706 z m -113.2349,20.03478 c 1.55225,-0.13242 2.04365,0.66251 2.04099,2.08496 -0.004,3.81441 0.0446,7.62838 0.0724,11.44146 0.0318,4.44881 0.0867,8.89911 0.0828,13.34792 -0.003,2.34559 -0.0436,2.38139 -2.37727,2.92309 -6.38648,1.48206 -12.78303,2.92334 -19.17083,4.40275 -2.61445,0.60527 -2.62168,0.6329 -2.07203,3.31887 2.43698,11.91471 4.82574,23.83806 7.36205,35.73158 0.66885,3.14158 0.90116,6.27346 0.91573,9.45477 0.0252,4.97859 0.18021,9.94259 1.21063,14.84568 0.63441,3.02106 1.54204,5.92686 3.18436,8.50025 -0.5364,1.08605 -1.56558,1.21124 -2.36952,1.62711 -5.74411,2.96014 -10.12857,7.21257 -12.835736,13.14874 -3.119069,6.83811 -6.344341,13.6296 -9.426325,20.48493 -0.831751,1.85025 -1.886259,2.99561 -3.962989,3.59824 -8.717499,2.53366 -15.811847,11.37064 -15.205253,22.06288 0.539049,9.49363 7.03684,17.48832 16.718535,19.96239 0.7152,0.18409 1.459622,0.27661 2.20396,0.94678 -2.868748,3.76672 -5.658051,7.61354 -8.663217,11.28623 -1.197299,1.46351 -1.245992,2.65198 -0.5096,4.28634 2.214472,4.91502 5.870747,8.50081 10.230821,11.45697 6.966582,4.72032 14.774684,7.40986 22.991544,8.68133 17.66148,2.73233 35.23842,2.20454 52.58203,-2.40056 6.26992,-1.66483 12.22997,-4.10129 17.65754,-7.74749 2.76015,-1.85422 4.97288,-4.24752 7.19133,-6.67655 1.02114,-1.11783 0.89129,-1.84544 0.003,-2.9593 -3.8952,-4.88456 -7.69923,-9.84217 -11.52423,-14.78102 -0.37879,-0.48872 -0.67698,-1.04075 -1.15113,-1.77714 3.02371,-1.07678 5.88244,-2.07806 8.30883,-3.97334 6.86857,-5.364 9.8411,-12.45903 8.53387,-20.97124 -1.31252,-8.54929 -6.40855,-14.4033 -14.587,-17.2747 -2.16945,-0.76023 -3.50908,-1.72219 -4.44414,-3.9009 -2.75484,-6.41826 -5.89274,-12.67294 -8.70719,-19.06736 -2.94689,-6.69243 -7.59487,-11.63898 -14.21709,-14.7448 -0.55097,-0.25694 -1.20755,-0.41556 -1.55985,-1.17182 3.25549,-5.60108 4.06557,-11.89752 4.21391,-18.26545 0.13245,-5.73485 0.5387,-11.38787 1.89096,-16.98498 0.4119,-1.70323 1.09132,-2.27919 2.76012,-2.2143 2.53896,0.098 5.0843,0.0512 7.62591,0.0181 2.34691,-0.0318 2.35219,-0.0615 2.42901,-2.51438 0.0225,-0.70063 0.003,-1.40458 0.003,-2.89723 3.14688,4.12433 5.84116,7.58939 8.70461,10.91375 11.33195,13.15307 25.13648,22.2413 42.27877,25.88618 2.6926,0.57348 5.41984,0.89861 8.1588,1.18734 2.34559,0.24899 2.41284,0.36244 2.38503,2.77823 -0.10463,8.89365 -0.30326,17.788 -0.38802,26.68033 -0.15099,15.99532 -0.0683,31.99266 -0.40872,47.98268 -0.44104,20.65207 -0.28479,41.30852 -0.60531,61.95662 -0.0609,3.89652 -0.28322,7.78872 -0.4501,12.15541 -2.65949,-2.42506 -4.84037,-4.57968 -7.19391,-6.52392 -5.77591,-4.76803 -12.67163,-6.55326 -19.94946,-7.34396 -9.78103,-1.0622 -19.15237,0.9654 -28.49368,3.48185 -9.71084,2.61578 -19.52071,4.83954 -29.53617,5.84878 -6.73215,0.67942 -13.4873,1.15257 -20.28833,0.48372 -4.62761,-0.45561 -9.29944,-0.41627 -13.9403,-0.86658 -13.024593,-1.25822 -25.807705,-3.44518 -37.599241,-9.53497 -13.621919,-7.03678 -22.408972,-17.97274 -26.791562,-32.66878 -4.880581,-16.36617 -6.998119,-33.04376 -6.963684,-50.10129 0.09801,-50.53289 0.03085,-101.06953 0.0388,-151.60242 -2e-6,-4.38921 -0.451119,-3.99271 3.841408,-3.99403 25.955154,-0.008 51.910329,-0.003 77.865479,-0.003 0.63574,0 1.27604,0.0492 1.90648,-0.005 z m 307.9775,0 c 1.46219,-0.13242 2.18871,0.42937 2.06687,1.97632 -0.0676,0.84235 -0.0104,1.6926 -0.0104,2.54025 0,48.62435 0.005,97.24955 -0.003,145.87523 -10e-4,5.613 0.12292,11.23512 -0.15522,16.83753 -0.71255,14.33447 -3.20689,28.37298 -7.87423,41.96576 -5.25408,15.30132 -15.98091,25.39936 -30.67695,31.54612 -8.6579,3.62103 -17.76726,5.43821 -27.04765,6.56531 -8.52148,1.03307 -17.08169,1.59573 -25.6482,1.72023 -13.9623,0.20264 -27.56106,-2.45719 -41.02934,-5.89015 -4.50841,-1.1483 -9.01052,-2.34982 -13.56264,-3.30077 -8.73869,-1.82509 -17.46543,-1.5028 -26.10347,0.69843 -5.35208,1.36418 -9.95995,4.13057 -13.9015,7.96478 -1.20789,1.17478 -2.17654,2.59252 -3.07054,3.67327 -1.71913,-0.6066 -1.22621,-1.48822 -1.22356,-2.116 0.094,-18.64289 0.005,-37.28787 0.40096,-55.92678 0.41455,-19.48524 0.13079,-38.97672 0.62083,-58.45667 0.26622,-10.58893 0.24511,-21.17579 0.38285,-31.76341 0.0331,-2.55088 0.0763,-2.53543 2.67217,-2.85065 14.0219,-1.70589 26.46819,-7.15513 37.56045,-15.81833 1.16232,-0.90947 2.35535,-1.78136 3.53358,-2.66958 4.95427,-4.76629 9.75667,-9.66883 14.16535,-14.95951 1.25027,-1.50192 1.81773,-3.55814 3.72758,-4.77266 0.69799,1.46087 0.36497,2.84801 0.40873,4.17511 0.0384,1.18537 0.49907,1.74083 1.72021,1.69176 1.16287,-0.0476 2.32926,0 3.49479,0 10.35714,3e-5 20.71643,-2.7e-4 31.20206,0.23283 -7.54006,5.55605 -15.13156,10.99047 -22.74579,16.98756 1.71648,2.24758 3.34852,4.40702 5.00805,6.54203 0.7152,0.92049 1.57568,1.76854 1.39688,3.07312 -0.19866,1.45557 0.6126,1.70863 1.84698,1.87286 4.11505,0.55229 8.24453,0.33057 12.36753,0.40871 1.03571,0.0199 2.08801,-0.19407 3.1171,0.13969 -0.0914,1.12975 -0.97769,1.01597 -1.64521,1.15371 -4.97726,1.03837 -10.01616,1.64536 -15.09143,1.85992 -1.60258,0.0675 -2.28537,0.55832 -2.17809,2.23242 0.12715,2.00388 0.0483,4.01801 0.0828,6.02984 0.0159,0.91387 -0.1895,1.69805 -1.0994,2.09273 -0.87943,0.38144 -1.35726,-0.33192 -1.88837,-0.79415 -5.59313,-4.85807 -11.16384,-9.74099 -16.77286,-14.58184 -0.91122,-0.78539 -1.05887,-1.73356 -1.13301,-2.81961 -0.23848,-3.48197 -0.47157,-6.96898 -0.8252,-10.44036 -0.27946,-2.75484 -0.36124,-2.79735 -3.10417,-2.64372 -2.32175,0.13112 -4.63556,0.40154 -6.95333,0.59755 -2.17607,0.18808 -2.17411,0.18149 -2.45489,2.59198 0.8834,3.72964 0.65449,7.5816 1.20546,11.34833 0.15231,1.04366 0.11353,2.11451 0.18108,3.17142 0.13906,2.18008 0.87035,3.8873 2.69544,5.40644 5.69511,4.74019 11.20281,9.7094 16.74958,14.62839 1.93634,1.71781 1.9507,1.82258 0.11899,3.69138 -4.11505,4.19981 -7.14391,9.13805 -10.2153,14.4292 2.99987,1.02513 5.77528,1.97666 8.80032,3.01105 -1.73503,2.42639 -4.01724,4.11105 -6.00656,6.07123 -0.62117,0.61057 -1.35369,0.33725 -2.09273,0.18626 -3.41839,-0.69798 -6.84322,-1.38066 -10.27221,-2.01771 -2.00521,-0.37217 -2.06342,-0.31475 -2.48592,1.74609 -0.57348,2.79591 -1.07665,5.60605 -1.66073,8.40195 -0.21324,1.02115 -4e-4,1.58604 1.12008,1.79265 5.92689,1.09134 11.85393,2.18783 17.7636,3.3732 1.34034,0.26887 1.9356,-0.581 2.67994,-1.28565 4.3071,-4.0766 8.71382,-8.05794 12.84609,-12.30543 1.7827,-1.83171 3.53282,-2.2516 5.88239,-1.7642 7.39173,1.53635 14.87329,2.09903 22.41468,1.77454 3.92698,-0.16953 7.78501,-0.80791 11.53717,-1.98667 3.05284,-0.95757 5.90474,-2.34875 8.42781,-4.33807 0.81719,-0.64368 1.40075,-0.69924 2.1186,0.16297 2.84491,3.41707 5.84263,6.71113 8.5882,10.20236 2.5138,3.19721 2.46804,3.9424 0.25092,7.35947 -1.92044,2.96013 -3.53147,6.04204 -4.1182,9.55049 -1.08075,6.46859 1.40897,11.58931 6.13591,15.82091 2.37341,2.12309 5.02931,3.85975 7.65436,5.45041 0.18939,1.11783 -0.61051,1.42713 -1.16148,1.84698 -6.66328,5.05806 -13.36982,10.0633 -19.99602,15.16903 -1.21981,0.94036 -2.37706,1.10344 -3.82071,0.93126 -3.67533,-0.43707 -7.37292,-0.6805 -11.04825,-1.11492 -1.67675,-0.19734 -2.32617,0.53359 -2.46523,2.04876 -0.24238,2.63432 -0.47059,5.27108 -0.75535,7.9001 -0.15098,1.39464 0.18472,2.10906 1.79525,2.24018 5.69246,0.47018 11.37433,1.05768 17.05223,1.67884 1.33901,0.14702 2.20683,-0.53203 3.13262,-1.2339 8.78107,-6.64872 17.55912,-13.29945 26.33887,-19.94946 4.89647,-3.70712 9.79545,-7.4108 14.6853,-11.12587 0.49137,-0.37217 1.1246,-0.6296 1.3736,-1.63485 -2.70054,-0.94433 -5.43133,-1.92355 -8.1769,-2.85066 -5.03422,-1.70191 -9.90983,-3.71981 -14.27918,-6.81107 -1.39066,-0.98406 -2.68734,-2.06656 -3.75086,-3.40423 -0.71388,-0.89931 -0.96097,-1.93654 -0.46563,-2.97226 0.47415,-0.99201 1.48173,-0.5665 2.27639,-0.5665 2.96146,-10e-4 5.90276,0.0713 8.84171,-0.59755 15.67878,-3.57203 17.50695,-20.72583 9.58412,-29.7069 -1.95885,-2.21977 -4.09302,-4.29489 -6.27043,-6.30404 -5.83019,-5.37861 -7.12152,-12.21644 -6.62222,-19.71148 0.0954,-1.44629 0.7005,-2.21723 1.93753,-2.92051 9.71216,-5.52691 15.76871,-13.87838 18.71295,-24.57725 0.77613,-2.82239 1.54368,-5.64818 2.34365,-8.57785 -17.51314,2.77869 -30.59775,11.97567 -34.5287,30.07422 -1.88601,8.68306 -1.15411,17.26626 2.78082,25.40763 1.39729,2.89126 3.25696,5.44886 5.51249,7.72161 1.49132,1.50456 3.03143,2.96057 4.53467,4.45189 0.75096,0.74567 1.53523,1.4695 2.19878,2.28933 1.72575,2.13104 2.41244,4.53288 1.13302,7.09303 -1.32577,2.65551 -3.94206,2.71866 -6.65585,3.21798 0.51521,-6.37456 -2.10286,-11.19175 -5.86429,-15.55447 -2.41976,-2.8065 -4.84683,-5.60555 -7.256,-8.42264 -2.21977,-2.59591 -2.85811,-5.29116 -1.71247,-8.77445 2.85418,-8.68704 2.87828,-17.70749 2.14188,-26.72431 -0.30859,-3.79056 -0.85878,-7.56004 -1.57795,-11.30694 -0.34568,-1.7999 -1.19569,-3.01463 -2.71615,-4.01989 -5.65273,-3.73891 -11.22246,-7.61711 -17.36522,-10.53089 -1.61583,-0.76553 -2.02585,-1.83512 -2.00996,-3.49995 0.0675,-7.30961 0.0298,-14.61742 0.0284,-21.92836 0,-0.74169 -0.0235,-1.48039 -0.0155,-2.22208 0.0119,-1.04896 -0.4835,-1.55119 -1.54173,-1.53397 -1.05823,0.0172 -2.11837,0.003 -3.17661,-0.0129 -2.83298,-0.0411 -2.97567,-0.19129 -2.88428,-3.12228 0.0755,-2.43301 0.2349,-4.86305 0.2561,-7.29738 0.0768,-8.79167 0.0711,-17.5834 0.18107,-26.37509 0.0503,-3.99054 -0.57584,-3.80261 3.74051,-3.80261 h 74.04995 c 0.52845,0 1.0625,0.0425 1.5883,-0.005 z m -297.9381,40.08775 c 1.2491,-0.0277 1.71054,0.55184 1.77196,2.07462 0.14569,3.56673 0.14211,3.6032 3.68103,3.9992 1.6794,0.18808 3.3763,0.20055 5.06497,0.30783 3.07006,0.1947 3.06876,0.19675 3.69655,-3.06536 0.51521,0.0702 0.83111,0.0836 1.13043,0.15779 2.23037,0.56157 2.25779,0.57295 1.78231,2.89205 -1.46086,7.13479 -3.00866,14.25383 -4.37946,21.40583 -0.34038,1.77873 -0.962,2.515 -2.85066,2.48851 -6.55601,-0.0927 -13.11408,-0.0134 -19.67008,-0.0492 -2.29792,-0.0119 -2.49046,-0.18199 -2.95931,-2.40573 -1.50192,-7.12684 -2.96498,-14.26334 -4.43379,-21.39548 -0.10595,-0.51653 -0.17836,-1.04829 -0.18366,-1.57277 -0.007,-0.80659 0.55283,-1.05267 1.24684,-1.11492 0.61057,-0.053 0.94137,0.23511 1.17182,0.79933 1.04896,2.5681 1.06436,2.59574 3.82848,2.37985 2.2105,-0.17217 4.4104,-0.49069 6.62222,-0.63377 1.30061,-0.0834 1.98566,-0.53909 1.80818,-1.92976 -0.0662,-0.52315 -0.0774,-1.05599 -0.0854,-1.58312 -0.0344,-1.98269 0.35975,-2.46998 2.17292,-2.70838 0.21174,-0.0278 0.40617,-0.0426 0.58462,-0.0466 z m 123.43727,1.30892 c 1.21451,-0.0278 2.20598,0.63087 3.22316,1.14079 10.34789,5.20374 19.1601,12.41019 27.12267,20.7436 1.03306,1.08075 1.11808,1.77938 -0.0103,2.84291 -10.38232,9.80355 -21.91267,17.69331 -35.8816,21.46533 -13.8537,3.7389 -27.06529,1.64953 -39.72301,-4.71576 -8.40493,-4.2263 -15.76173,-9.91032 -22.37071,-16.57625 -1.60125,-1.61715 -1.62995,-1.7242 -0.18366,-3.37579 6.95201,-7.94137 14.63653,-15.0149 24.05731,-19.99084 0.56156,-0.29668 1.11948,-0.60561 1.69694,-0.86917 1.88998,-0.86486 2.06185,-0.78885 2.33072,1.35807 0.69665,5.57327 1.7415,11.07682 3.26196,16.48055 1.12578,4.00248 2.83544,7.7194 5.4711,11.01462 5.30705,6.63414 16.4155,6.56029 21.72918,-0.18107 2.96013,-3.75483 4.60029,-8.08109 5.77375,-12.61069 1.19465,-4.60907 2.06324,-9.28963 2.65924,-14.0179 0.1192,-0.93638 0.18637,-1.89651 0.8433,-2.7084 z m 94.32274,37.59149 c 0.67873,-0.0382 1.32735,0.24099 1.99702,0.54064 3.48858,1.56285 6.73975,3.55856 10.00319,5.52801 1.3602,0.82116 2.65471,1.76006 4.06128,2.4885 1.74694,0.9046 2.61574,2.20932 2.87135,4.18804 1.06486,8.23805 1.40353,16.45163 -0.3699,24.63935 -0.65428,3.01708 -1.70569,5.87762 -3.26456,8.56492 -1.97077,3.39455 -4.86613,5.52158 -8.60372,6.5679 -4.96402,1.39066 -10.0484,1.55578 -15.12765,1.17699 -6.54541,-0.48872 -13.02618,-1.50535 -19.41398,-3.0576 -0.39469,-0.0954 -0.86042,-0.0846 -1.06835,-0.61566 -0.15629,-0.75364 0.52547,-1.06156 0.95194,-1.46155 5.84478,-5.47393 12.48902,-9.44733 20.54959,-10.59298 1.44232,-0.20396 2.14161,-0.65907 1.93235,-2.17291 -0.0861,-0.62778 -0.0136,-1.2761 -0.0957,-1.90389 -0.19072,-1.44629 0.46288,-2.07764 1.84958,-2.39021 2.58532,-0.58276 5.03094,-1.6148 7.47587,-2.63595 1.25293,-0.52448 1.72179,-1.30813 1.70987,-2.66701 -0.0556,-6.25138 -0.0567,-12.50038 -0.008,-18.75176 0.0132,-1.56417 -0.63299,-2.11907 -2.10048,-1.87803 -3.4568,0.56554 -6.95441,0.62371 -10.44035,0.83038 -0.50329,0.0305 -1.03411,0.28234 -1.72282,-0.50703 2.40784,-2.07937 5.06232,-3.63015 7.5483,-5.41418 0.43956,-0.31588 0.85771,-0.45307 1.26495,-0.47597 z m -227.12942,3.53099 c 6.14013,0.0252 12.28052,0.0251 18.42065,0.003 1.27412,-0.005 1.62387,0.64449 1.59606,1.78749 -0.10066,4.23818 -0.42324,8.45405 -1.45896,12.57705 -0.36157,1.44232 -0.85242,2.95355 -2.61526,3.2542 -1.37477,0.2331 -1.59385,1.03505 -1.57795,2.235 0.0464,3.81043 0.08,7.62591 -0.0233,11.43369 -0.0437,1.61317 0.51223,2.27278 2.11083,2.42642 3.85679,0.37349 7.42087,1.63605 10.59556,3.9035 1.83701,1.31252 3.40102,2.89825 4.36653,4.95114 2.97073,6.31893 5.8776,12.66818 8.84171,18.98975 0.49534,1.05559 0.40002,1.66475 -0.71913,2.26605 -3.70447,1.98402 -6.71272,4.75668 -9.08745,9.02537 -1.10857,-2.56678 -1.99089,-4.58171 -2.14188,-6.824 -0.43972,-6.54275 -0.85942,-13.0872 -1.2753,-19.63128 -0.17085,-2.68465 -0.34773,-2.85776 -3.06019,-2.27897 -4.03029,0.86089 -8.05968,1.73252 -12.06746,2.69804 -1.80521,0.43574 -3.52246,0.38483 -5.32106,-0.031 -4.221,-0.97744 -8.46155,-1.86554 -12.70639,-2.72908 -2.12574,-0.43177 -2.35058,-0.22152 -2.49627,1.94528 -0.4331,6.4368 -0.8772,12.87491 -1.25202,19.31569 -0.14436,2.48863 -1.10212,4.69005 -1.9789,6.94558 -1.07148,-0.24105 -1.26185,-1.17869 -1.72541,-1.8237 -2.01845,-2.80385 -4.58723,-4.97173 -7.5871,-6.63258 -0.85824,-0.47415 -1.32969,-0.90257 -0.83037,-1.9608 3.16013,-6.69636 6.01528,-13.55218 9.50652,-20.06845 2.68862,-5.02097 7.8087,-6.87222 13.14357,-7.95959 0.61984,-0.12583 1.2631,-0.13922 1.89354,-0.21471 0.99465,-0.11788 1.47467,-0.64698 1.46672,-1.68402 -0.0318,-4.12829 -0.0429,-8.25859 -0.0336,-12.38821 0.001,-0.9483 -0.19442,-1.65146 -1.28047,-1.82629 -1.90455,-0.30595 -2.50374,-1.81408 -2.9024,-3.38355 -1.04896,-4.123 -1.36711,-8.33485 -1.42274,-12.57705 -0.0159,-1.1867 0.3796,-1.74749 1.62193,-1.74351 z m 15.25957,58.57567 c 1.12843,5.47257 0.23468,10.99357 2.8041,16.36155 -3.14556,0.31521 -5.93386,0.12468 -8.7046,0.15779 -2.83697,0.0344 -5.67329,0.008 -8.41489,0.008 -0.17218,-0.38541 -0.36724,-0.61286 -0.31559,-0.73206 1.95223,-4.47398 1.50809,-9.309 2.11601,-13.98429 0.13112,-1.01055 0.17632,-2.06673 1.59347,-1.57536 3.61839,1.25293 7.21968,0.96185 10.9215,-0.23539 z m 224.31499,6.32732 c -0.4874,-0.019 -0.95001,0.49942 -1.8056,1.59607 -1.27015,1.62641 -2.51458,1.833 -4.38205,1.27011 -2.84226,-0.85427 -5.80261,-1.16642 -8.4899,-1.06577 -11.226,-0.39733 -19.94492,5.12255 -24.27718,15.80023 -1.7284,4.26074 -2.46393,8.73055 -3.01622,13.25221 -0.1404,1.14962 0.41465,1.48201 1.4305,1.54691 2.74425,0.17218 5.48438,0.43231 8.22864,0.58463 2.4277,0.13509 2.52979,0.0553 2.75495,-2.30486 0.26489,-2.75484 0.79738,-5.43927 1.81853,-8.01134 2.81179,-7.08313 8.62888,-10.14074 16.05372,-8.52094 1.33901,0.29005 1.69628,0.85081 1.28305,2.18585 -0.84764,2.73895 -1.40869,5.57471 -1.12526,8.43816 0.19337,1.95223 -0.51866,2.7867 -2.28415,3.47409 -7.98376,3.1045 -15.92771,6.31261 -23.8426,9.58929 -1.67012,0.69137 -2.90472,0.48007 -4.35101,-0.52254 -3.47667,-2.41181 -7.1018,-4.61173 -10.59039,-7.00765 -1.21451,-0.8344 -1.94655,-0.91395 -2.77565,0.44493 -1.4304,2.34825 -2.92414,4.66612 -4.53466,6.89383 -1.00393,1.38802 -0.7388,2.12109 0.65186,3.00847 5.17329,3.30052 10.3204,6.64967 15.38375,10.11442 1.83171,1.25425 3.3708,1.49545 5.51507,0.60013 9.75852,-4.074 19.60032,-7.94899 29.41976,-11.87862 2.45817,-0.98406 2.50087,-0.98704 4.29152,0.95195 3.94287,4.26736 8.74076,7.30891 13.87563,9.90747 1.22644,0.62116 1.88447,0.42521 2.43677,-0.83036 1.02115,-2.32308 2.17559,-4.59038 3.22057,-6.90419 1.13903,-2.52572 1.1296,-2.56835 -1.26235,-3.79744 -2.74425,-1.41053 -5.32606,-3.06329 -7.65179,-5.08307 -5.4183,-4.70576 -6.59682,-10.35204 -3.54132,-16.8246 1.13637,-2.40652 2.6153,-4.58995 4.37946,-6.59118 1.5443,-1.75224 1.52143,-1.79252 -0.0957,-3.56462 -1.56947,-1.72045 -3.18117,-3.39884 -4.75196,-5.11929 -0.9642,-1.05492 -1.47859,-1.61324 -1.96597,-1.63228 z m -270.916318,8.58561 c 5.328243,0.0702 9.564668,4.44866 9.511688,9.82988 -0.0517,5.23685 -4.293229,9.51504 -9.462539,9.53755 -5.281888,0.0238 -9.729106,-4.39056 -9.723808,-9.65655 0.004,-5.31368 4.452371,-9.77975 9.674659,-9.71088 z m 81.140378,0.0621 c 5.3746,0.0649 9.70504,4.44937 9.62292,9.7445 -0.0808,5.25673 -4.59775,9.63898 -9.85314,9.56084 -5.31235,-0.0781 -9.44547,-4.47132 -9.34614,-9.93334 0.0954,-5.24612 4.37526,-9.43557 9.57636,-9.372 z m -51.79305,13.66869 c 8.14534,0.13244 16.29734,0.12443 24.44533,0.003 2.04229,-0.0291 3.32311,0.67348 4.52173,2.235 7.79304,10.1532 15.65286,20.25541 23.48563,30.37947 1.32312,1.70986 1.32231,1.83094 -0.46304,2.79116 -2.42506,1.30723 -4.99384,2.291 -7.58711,3.21281 -1.19729,0.42515 -1.99873,0.11639 -2.53248,-1.0968 -0.93638,-2.12838 -1.98514,-4.20683 -2.93344,-6.32992 -0.52183,-1.16948 -1.13219,-1.61668 -2.43677,-0.95711 -2.64095,1.33637 -5.33137,2.57805 -8.03721,3.77932 -1.15624,0.51388 -1.31704,1.12435 -0.75018,2.21172 0.87546,1.67409 1.63081,3.41517 2.57646,5.4323 -3.84751,1.1377 -7.49116,0.88123 -11.03273,1.41499 -1.44497,0.2172 -1.82306,-0.58556 -1.79524,-1.87027 0.0358,-1.58536 -0.0544,-3.17304 -0.0517,-4.75972 0.003,-1.04631 -0.45367,-1.56004 -1.51587,-1.55209 -3.06742,0.0225 -6.13771,0.0441 -9.20645,0.0362 -1.192,-0.003 -1.74059,0.52677 -1.69953,1.72539 0.0556,1.58404 0.0156,3.17444 0.12417,4.75715 0.0887,1.28603 -0.45145,1.77352 -1.66332,1.59605 -4.06472,-0.59336 -8.21798,-0.62821 -12.37011,-1.96855 0.35892,-1.92442 1.45974,-3.4689 2.36434,-5.07015 0.73507,-1.29928 0.23118,-1.86625 -0.91314,-2.42384 -2.56678,-1.24763 -5.12271,-2.52752 -7.62591,-3.89832 -1.25558,-0.68739 -1.93824,-0.30878 -2.51438,0.83554 -1.04366,2.06878 -2.12584,4.11651 -3.25161,6.28595 -2.193286,-0.71255 -3.79454,-2.07208 -5.463341,-3.33958 -1.082072,-0.8238 -1.057943,-1.535 -0.232814,-2.59456 3.773346,-4.83555 7.471305,-9.73249 11.198285,-14.60512 3.53362,-4.62099 7.11801,-9.20678 10.57746,-13.88339 1.24498,-1.68337 2.62946,-2.38199 4.78301,-2.34623 z"
   style="fill:#cfa54b;fill-opacity:1;stroke-width:1.32445" />
</svg>
